#!OML:ASF H:\LiuWeirdWalks\Patient Classification 1\Patient 1\Session 1\male.ASF
:FULLY-SPECIFIED
:DEGREES
205
root 1.09249 16.5353 -26.1047 14.0315 11.6244 0.91983
lowerback 16.9164 0.0584725 -7.41384
upperback -0.83737 -1.2506 1.61051
thorax -10.276 -0.134636 6.31945
lowerneck -22.9205 -1.17219 5.64245
upperneck 12.7878 -3.19834 -0.839195
head 7.55877 -1.31742 -1.59043
rclavicle -2.31025e-014 -1.88348e-014
rhumerus -33.5851 7.71591 -77.9526
rradius 53.9239
rwrist -13.2973
rhand -19.8808 2.64335
rfingers 7.12502
rthumb 6.45488 -27.2383
lclavicle -2.31025e-014 -1.88348e-014
lhumerus -25.2014 -14.4962 86.9189
lradius 39.7122
lwrist 7.4773
lhand -13.6144 -4.9043
lfingers 7.12502
lthumb 12.5009 24.7018
rfemur -42.6175 -15.7388 13.762
rtibia 85.5248
rfoot -18.8994 -15.1086
rtoes -11.2081
lfemur -25.1039 2.01325 -24.1051
ltibia 58.1023
lfoot -22.8322 7.36066
ltoes -28.6375
206
root 1.09563 16.5968 -25.9434 13.8956 11.7347 0.990717
lowerback 16.712 -0.0279427 -7.64582
upperback -0.963394 -1.40498 1.57175
thorax -10.2722 -0.193176 6.44372
lowerneck -23.0409 -1.13997 5.70243
upperneck 13.1646 -3.18682 -0.852842
head 7.70421 -1.30052 -1.60986
rclavicle 2.14066e-014 -2.33572e-015
rhumerus -34.5384 9.16045 -78.0879
rradius 55.7836
rwrist -12.6273
rhand -20.0355 2.82037
rfingers 7.12502
rthumb 6.30555 -27.0658
lclavicle 2.14066e-014 -2.33572e-015
lhumerus -25.8796 -15.368 86.9299
lradius 40.8165
lwrist 7.52436
lhand -13.5976 -5.01204
lfingers 7.12502
lthumb 12.5171 24.5931
rfemur -42.7323 -16.1946 13.2544
rtibia 86.0737
rfoot -17.6466 -14.26
rtoes -11.1427
lfemur -23.3588 2.8586 -23.9227
ltibia 56.1601
lfoot -22.8938 6.54997
ltoes -28.729
207
root 1.10437 16.6672 -25.7718 13.7092 11.7962 1.05786
lowerback 16.4764 -0.120322 -7.82708
upperback -1.09935 -1.55484 1.52839
thorax -10.2624 -0.25251 6.53078
lowerneck -23.1412 -1.06735 5.82527
upperneck 13.6121 -3.1244 -0.954964
head 7.86985 -1.26365 -1.66337
rclavicle 2.29596e-014 1.88348e-014
rhumerus -35.58 10.6531 -78.2547
rradius 57.6577
rwrist -11.9433
rhand -20.0372 2.98762
rfingers 7.12502
rthumb 6.30388 -26.8986
lclavicle 2.29596e-014 1.88348e-014
lhumerus -26.7276 -16.1161 86.9532
lradius 41.9833
lwrist 7.52473
lhand -13.6529 -5.17824
lfingers 7.12502
lthumb 12.4637 24.4301
rfemur -42.774 -16.6579 12.6655
rtibia 86.6248
rfoot -16.0857 -13.2905
rtoes -11.1142
lfemur -21.4212 3.62286 -23.7393
ltibia 53.998
lfoot -22.7858 5.74079
ltoes -28.8391
208
root 1.11913 16.746 -25.5903 13.4723 11.8082 1.13504
lowerback 16.2163 -0.215298 -7.96305
upperback -1.23989 -1.69795 1.47314
thorax -10.2452 -0.311831 6.57516
lowerneck -23.2316 -1.00442 5.88281
upperneck 14.1276 -3.06018 -1.02807
head 8.05937 -1.2247 -1.69754
rclavicle -2.29348e-014 8.94531e-015
rhumerus -36.6843 12.1475 -78.4498
rradius 59.5166
rwrist -11.3197
rhand -19.862 3.10087
rfingers 7.12502
rthumb 6.47307 -26.7802
lclavicle -2.29348e-014 8.94531e-015
lhumerus -27.7017 -16.7318 86.9834
lradius 43.1468
lwrist 7.48043
lhand -13.7692 -5.39013
lfingers 7.12502
lthumb 12.3516 24.225
rfemur -42.7359 -17.1214 11.9785
rtibia 87.173
rfoot -14.2632 -12.2001
rtoes -11.0631
lfemur -19.3039 4.2427 -23.5771
ltibia 51.6347
lfoot -22.4413 4.96576
ltoes -28.9833
209
root 1.13876 16.834 -25.4004 13.1841 11.7744 1.19319
lowerback 15.9675 -0.300327 -8.04312
upperback -1.40398 -1.81811 1.42066
thorax -10.2656 -0.360532 6.58546
lowerneck -23.2524 -0.933928 5.95182
upperneck 14.6388 -2.97754 -1.13423
head 8.23675 -1.1804 -1.74156
rclavicle -3.89618e-014 -6.65929e-015
rhumerus -37.9024 13.6154 -78.6624
rradius 61.3654
rwrist -10.7592
rhand -19.545 3.19434
rfingers 7.12502
rthumb 6.7791 -26.6771
lclavicle -3.89618e-014 -6.65929e-015
lhumerus -28.8116 -17.2141 87.0485
lradius 44.2742
lwrist 7.4692
lhand -13.9938 -5.65806
lfingers 7.12502
lthumb 12.1351 23.97
rfemur -42.6378 -17.5547 11.2521
rtibia 87.7036
rfoot -12.2094 -11.0808
rtoes -11.0507
lfemur -17.0457 4.67191 -23.4091
ltibia 49.0995
lfoot -21.7992 4.2322
ltoes -29.1742
210
root 1.16275 16.9314 -25.2027 12.8496 11.6839 1.22272
lowerback 15.7041 -0.365496 -8.06306
upperback -1.56674 -1.89847 1.37005
thorax -10.2838 -0.393836 6.55281
lowerneck -23.2662 -0.890678 5.97483
upperneck 15.1745 -2.92163 -1.21296
head 8.42238 -1.14795 -1.7729
rclavicle 2.39784e-014 2.36554e-014
rhumerus -39.1734 15.0107 -78.8848
rradius 63.1625
rwrist -10.2944
rhand -19.1164 3.28922
rfingers 7.12502
rthumb 7.19282 -26.5685
lclavicle 2.39784e-014 2.36554e-014
lhumerus -29.9844 -17.584 87.1313
lradius 45.3328
lwrist 7.52863
lhand -14.2741 -5.982
lfingers 7.12502
lthumb 11.8648 23.6619
rfemur -42.4842 -17.9245 10.5118
rtibia 88.2076
rfoot -9.99241 -9.97207
rtoes -10.8668
lfemur -14.6771 4.90392 -23.2386
ltibia 46.4272
lfoot -20.8183 3.54163
ltoes -29.418
211
root 1.19093 17.0385 -24.9976 12.4713 11.5278 1.22385
lowerback 15.4383 -0.398257 -8.03278
upperback -1.72702 -1.92489 1.32714
thorax -10.3079 -0.403911 6.48706
lowerneck -23.3124 -0.847101 6.039
upperneck 15.7088 -2.86783 -1.35175
head 8.61213 -1.12094 -1.83225
rclavicle 4.33351e-014 2.6339e-014
rhumerus -40.485 16.3124 -79.1
rradius 64.8841
rwrist -9.94282
rhand -18.6273 3.36036
rfingers 7.12502
rthumb 7.66489 -26.4807
lclavicle 4.33351e-014 2.6339e-014
lhumerus -31.1796 -17.8313 87.2474
lradius 46.2767
lwrist 7.6378
lhand -14.6176 -6.33036
lfingers 7.12502
lthumb 11.5335 23.3323
rfemur -42.2831 -18.2088 9.77738
rtibia 88.6705
rfoot -7.67077 -8.96894
rtoes -10.488
lfemur -12.2265 4.92652 -23.0863
ltibia 43.6582
lfoot -19.4509 2.92801
ltoes -29.8352
